<svg width="1225" height="396" viewBox="0 0 1225 396" fill="none" xmlns="http://www.w3.org/2000/svg">
<rect width="1225" height="396" fill="#F5F5F5"/>
<path fill-rule="evenodd" clip-rule="evenodd" d="M1225 0H685.998V396H1225V0ZM856.214 109.056V195.432V281.402C856.214 281.585 856.218 281.769 856.223 281.952C856.231 282.316 856.239 282.676 856.214 283.028C856.139 284.024 856.384 284.614 857.442 284.451C857.694 284.424 857.946 284.433 858.198 284.442C858.25 284.444 858.303 284.446 858.356 284.447C858.429 284.449 858.502 284.451 858.575 284.451C863.035 284.451 867.497 284.453 871.961 284.455H871.965H871.969C880.906 284.46 889.848 284.464 898.79 284.451C899.072 284.451 899.321 284.454 899.541 284.457H899.541C900.379 284.469 900.798 284.474 901.003 284.268C901.207 284.062 901.198 283.645 901.182 282.813C901.176 282.539 901.17 282.22 901.17 281.849V109.3C901.17 109.165 901.166 109.029 901.162 108.894V108.893C901.153 108.622 901.145 108.351 901.17 108.081C901.264 107.064 900.943 106.536 899.923 106.658C899.722 106.685 899.513 106.676 899.301 106.667C899.194 106.662 899.087 106.658 898.979 106.658C894.473 106.658 889.965 106.655 885.456 106.653H885.454H885.452C876.429 106.648 867.404 106.644 858.386 106.658C858.119 106.658 857.884 106.654 857.678 106.65C856.953 106.639 856.581 106.633 856.391 106.816C856.19 107.011 856.196 107.419 856.207 108.262V108.262C856.211 108.493 856.214 108.756 856.214 109.056ZM1080.12 106.663H1013.07H1013.04C990.706 106.663 968.369 106.663 946.05 106.643C945.88 106.643 945.712 106.645 945.544 106.648L945.543 106.648C945.209 106.652 944.878 106.657 944.539 106.643C943.784 106.603 943.519 106.989 943.576 107.741C943.588 107.971 943.584 108.191 943.58 108.415L943.58 108.417C943.578 108.529 943.576 108.642 943.576 108.757V150.024C943.576 150.127 943.575 150.225 943.575 150.318L943.575 150.452C943.571 151.36 943.569 151.795 943.785 152.002C943.985 152.193 944.371 152.189 945.113 152.182C945.27 152.181 945.444 152.179 945.635 152.179H987.757C989.096 152.179 989.776 152.179 990.121 152.519C990.477 152.869 990.477 153.58 990.477 155.025V155.025V282.261C990.477 282.506 990.474 282.722 990.472 282.915C990.462 283.665 990.456 284.047 990.645 284.242C990.842 284.444 991.249 284.442 992.081 284.438H992.086C992.213 284.437 992.35 284.437 992.498 284.437H993.065H1032.92C1034.16 284.437 1034.78 284.437 1035.1 284.123C1035.43 283.798 1035.43 283.138 1035.43 281.794V281.794V154.558C1035.43 154.44 1035.43 154.329 1035.43 154.223C1035.43 154.08 1035.43 153.946 1035.43 153.822C1035.41 153.015 1035.41 152.605 1035.61 152.399C1035.82 152.187 1036.25 152.19 1037.12 152.197H1037.12C1037.29 152.198 1037.48 152.199 1037.68 152.199H1080.56C1082.41 152.199 1082.41 152.199 1082.43 150.228V149.618V109.164C1082.43 108.882 1082.43 108.631 1082.43 108.408C1082.44 107.492 1082.45 107.048 1082.23 106.837C1082.02 106.639 1081.62 106.645 1080.84 106.657C1080.63 106.66 1080.39 106.663 1080.12 106.663Z" fill="#FF6B0A"/>
<path fill-rule="evenodd" clip-rule="evenodd" d="M538.996 0H0V396H538.996L685.995 198L538.996 0ZM238.322 169.035C239.139 169.749 239.962 170.468 240.796 171.188C241.349 170.826 241.691 170.33 242.013 169.862C242.088 169.753 242.162 169.646 242.237 169.542C245.158 165.803 248.059 162.043 250.96 158.284L250.963 158.28C256.786 150.778 262.591 143.277 268.395 135.756C269.552 134.251 269.514 133.56 268.186 132.34C267.143 131.365 266.081 130.409 265 129.454C255.781 121.322 245.652 114.98 234.176 111.3C226.512 108.861 218.678 107.519 210.712 106.93C200.317 106.178 190.017 106.544 179.812 109.085C144.075 117.948 117.405 149.823 114.275 190.683C113.441 201.701 114.237 212.618 116.855 223.331C122.811 247.583 135.748 266.163 156.291 278.401C167.482 285.069 179.603 288.586 192.35 289.683C203.143 290.619 213.822 289.907 224.369 287.346C242.199 283.016 257.962 274.274 271.98 261.772C273.099 260.776 273.554 259.78 273.554 258.195C273.509 238.757 273.512 219.306 273.515 199.864V199.828C273.516 194.964 273.517 190.099 273.517 185.235C273.517 184.983 273.5 184.727 273.484 184.471V184.47V184.47C273.447 183.901 273.411 183.335 273.554 182.816C273.721 182.214 273.42 181.869 273.126 181.533C272.884 181.256 272.648 180.984 272.682 180.58C272.758 179.909 272.34 179.808 271.847 179.808H270.52H196.561C196.416 179.808 196.269 179.812 196.122 179.817C195.825 179.826 195.525 179.835 195.233 179.808C194.475 179.726 194.228 180.133 194.285 180.885C194.31 181.198 194.302 181.519 194.293 181.838V181.838C194.291 181.928 194.288 182.019 194.287 182.108C194.286 182.175 194.285 182.242 194.285 182.308C194.285 186.577 194.283 190.846 194.281 195.115V195.138C194.276 203.668 194.272 212.199 194.285 220.729C194.285 221.082 194.279 221.386 194.274 221.648C194.258 222.449 194.25 222.851 194.447 223.05C194.645 223.251 195.052 223.246 195.869 223.235H195.871C196.079 223.232 196.315 223.229 196.58 223.229H226.361C226.623 223.229 226.856 223.226 227.062 223.224C227.868 223.214 228.269 223.208 228.466 223.406C228.661 223.603 228.655 223.999 228.643 224.789V224.79C228.639 225.061 228.634 225.378 228.637 225.75C228.65 227.606 228.645 229.453 228.641 231.303C228.639 232.229 228.637 233.156 228.637 234.085V234.153C228.637 237.968 228.637 237.998 225.431 239.655C216.042 244.493 206.121 245.875 195.878 244.493C184.497 242.968 175.392 237.175 168.715 227.153C164.371 220.627 162 213.268 161.109 205.34C159.99 195.217 161.128 185.479 165.396 176.291C170.536 165.252 178.313 157.324 189.486 153.685C197.32 151.124 205.249 151.795 213.102 153.645C220.215 155.312 226.418 159.052 232.127 163.748C234.22 165.452 236.254 167.229 238.321 169.034L238.321 169.035L238.322 169.035ZM449.011 132.157C431.465 114.959 410.561 106.766 388.956 106.583C378.979 106.604 371.524 107.478 363.614 109.694C340.662 116.138 322.699 129.961 310.768 152.038C298.514 174.684 296.029 198.977 302.877 223.96C310.54 251.892 326.872 272.22 352.138 283.543C371.543 292.224 391.65 293.382 411.927 287.65C435.486 281.002 453.544 266.305 465.381 243.374C475.358 224.042 478.033 203.306 474.315 181.657C470.976 162.202 462.63 145.533 449.011 132.157ZM352.119 175.822C359.764 160.637 371.979 153.359 383.835 153.075C407.887 153.014 423.612 167.589 427.899 187.796C430.497 199.973 429.34 211.804 423.783 222.863C417.238 235.852 407.033 243.415 393.3 245.102C380.022 246.749 368.432 242.703 358.967 232.417C352.897 225.831 349.236 217.801 347.681 208.734C345.708 197.249 346.922 186.129 352.119 175.822Z" fill="#FF6B0A"/>
</svg>
